<?xml version="1.0" encoding="UTF-8" standalone="no"?>
<!DOCTYPE svg PUBLIC "-//W3C//DTD SVG 1.1//EN" "http://www.w3.org/Graphics/SVG/1.1/DTD/svg11.dtd">
<svg width="100%" height="100%" viewBox="0 0 513 500" version="1.1" xmlns="http://www.w3.org/2000/svg" xmlns:xlink="http://www.w3.org/1999/xlink" xml:space="preserve" xmlns:serif="http://www.serif.com/" style="fill-rule:evenodd;clip-rule:evenodd;stroke-linejoin:round;stroke-miterlimit:2;">
    <path d="M512.47,90.75L512.47,408.91C512.47,458.996 471.806,499.66 421.72,499.66L90.75,499.66C40.664,499.66 0,458.996 0,408.91L0,90.75C0,40.664 40.664,0 90.75,0L421.72,0C471.806,0 512.47,40.664 512.47,90.75ZM421.43,227C422.181,227.493 423.159,227.493 423.91,227C424.585,226.536 424.966,225.747 424.91,224.93L424.91,190.21C424.917,189.338 424.803,188.47 424.57,187.63C424.219,186.712 423.455,186.011 422.51,185.74C416.822,183.222 410.8,181.538 404.63,180.74C395.871,179.406 387.02,178.774 378.16,178.85C363.027,178.85 350.42,181.37 340.34,186.41C331.16,190.648 323.4,197.453 318,206C313.22,213.743 310.675,222.66 310.65,231.76C310.548,239.331 312.263,246.818 315.65,253.59C319.56,260.781 325.093,266.962 331.81,271.64C341.204,278.148 351.437,283.352 362.23,287.11C372.797,291.017 379.797,294.35 383.23,297.11C386.663,299.87 388.38,302.733 388.38,305.7C388.421,309.531 386.193,313.044 382.71,314.64C378.903,316.7 373,317.73 365,317.73C356.569,317.615 348.179,316.521 340,314.47C331.006,312.372 322.411,308.829 314.55,303.98C314.017,303.54 313.263,303.472 312.66,303.81C312.044,304.23 311.712,304.96 311.8,305.7L311.8,342.83C311.733,344.552 312.671,346.165 314.2,346.96C320.799,350.159 327.794,352.469 335,353.83C344.544,355.756 354.264,356.677 364,356.58C379.333,356.58 392.237,354.29 402.71,349.71C412.335,345.769 420.628,339.145 426.6,330.63C432.18,322.238 435.059,312.336 434.85,302.26C434.984,294.631 433.268,287.082 429.85,280.26C425.788,273.055 419.997,266.971 413,262.56C402.733,256.018 391.709,250.75 380.17,246.87C374.996,244.831 369.944,242.493 365.04,239.87C362.284,238.468 359.831,236.538 357.82,234.19C356.55,232.632 355.827,230.699 355.76,228.69C355.761,226.619 356.359,224.591 357.48,222.85C359.137,220.673 361.511,219.15 364.18,218.55C368.382,217.411 372.728,216.889 377.08,217C385.131,217.03 393.154,217.956 401,219.76C408.105,221.242 414.977,223.677 421.43,227ZM94.15,349.71C94.15,352 94.84,353.14 96.2,353.14C100.1,353.373 105.947,353.547 113.74,353.66C121.533,353.773 129.953,353.83 139,353.83L164.6,353.83C176.304,353.801 187.962,352.358 199.32,349.53C210.918,346.708 222.038,342.193 232.32,336.13C242.691,330.008 252.032,322.29 260,313.26C268.437,303.626 274.991,292.493 279.32,280.44C284.228,266.36 286.599,251.519 286.32,236.61C286.327,215.297 281.803,196.447 272.75,180.06C263.369,163.366 249.168,149.883 232.01,141.38C213.903,131.987 191.097,127.29 163.59,127.29C153.51,127.29 144,127.34 135.06,127.46C126.12,127.58 118.32,127.68 111.68,127.8C105.04,127.92 99.99,128.09 96.56,128.32L96.4,128.32C95.124,128.442 94.137,129.527 94.137,130.809C94.137,130.893 94.142,130.977 94.15,131.06L94.15,349.71ZM141.59,169.56C145.49,169.34 148.99,169.17 152.08,169.05C155.17,168.93 159.01,168.88 163.59,168.88C173.652,168.78 183.674,170.168 193.33,173C201.972,175.519 209.955,179.91 216.71,185.86C223.317,191.812 228.438,199.231 231.66,207.52C235.279,217.127 237.03,227.337 236.82,237.6C236.996,248.501 235.19,259.344 231.49,269.6C228.246,278.522 223.08,286.624 216.36,293.33C209.687,299.834 201.644,304.765 192.82,307.76C182.965,311.08 172.619,312.71 162.22,312.58C159.47,312.58 157,312.52 154.83,312.4L148.47,312.06C146.403,311.947 144.11,311.89 141.59,311.89L141.59,169.56Z" style="fill:white;"/>
</svg>
