<?xml version="1.0" encoding="UTF-8" standalone="no"?>
<!DOCTYPE svg PUBLIC "-//W3C//DTD SVG 1.1//EN" "http://www.w3.org/Graphics/SVG/1.1/DTD/svg11.dtd">
<svg width="100%" height="100%" viewBox="0 0 327 327" version="1.1" xmlns="http://www.w3.org/2000/svg" xmlns:xlink="http://www.w3.org/1999/xlink" xml:space="preserve" xmlns:serif="http://www.serif.com/" style="fill-rule:evenodd;clip-rule:evenodd;stroke-linejoin:round;stroke-miterlimit:2;">
    <g>
        <g transform="matrix(1,0,0,1,-174.86,-8.48)">
            <path d="M434.82,195C432.01,208.56 419.5,243.34 379.63,262.18L363.63,244.18L336.63,271.34C305.489,270.921 276.278,255.937 257.77,230.89C260.643,231.783 263.609,232.341 266.61,232.55C271.03,232.63 275.82,231.01 275.82,223.55L275.82,150.3C275.825,150.159 275.827,150.018 275.827,149.877C275.827,143.262 270.383,137.817 263.767,137.817C262.711,137.817 261.66,137.956 260.64,138.23C248.14,141.09 238.14,172.3 238.14,172.3C237.859,143.146 250.438,115.301 272.5,96.24C291.12,80.46 309.31,75 323.13,72.86C309.48,80.64 301.8,93.34 301.8,104C301.8,121.09 312.12,119.07 315.18,116.55L315.18,215.47C315.697,216.713 316.369,217.885 317.18,218.96C319.952,222.793 324.42,225.048 329.15,225C339.49,225 352.9,213.2 352.9,213.2L352.9,133.1C352.9,124.95 346.76,115.1 340.61,111.74C340.61,111.74 351.99,109.74 360.79,116.45C362.44,114.429 364.196,112.496 366.05,110.66C386.51,90.56 405.82,84.86 421.9,82C437.98,79.14 392.63,105 392.63,135.8C392.63,158.73 393.22,214.64 393.22,214.64C404.11,225.1 420.24,210 434.82,195Z" style="fill:white;stroke:white;stroke-width:1px;"/>
        </g>
        <g transform="matrix(1,0,0,1,-174.86,-8.48)">
            <path d="M337.92,8.48C248.466,8.485 174.86,82.096 174.86,171.55C174.86,261.008 248.472,334.62 337.93,334.62C427.388,334.62 501,261.008 501,171.55C501,171.547 501,171.54 501,171.54C501,82.088 427.392,8.48 337.94,8.48C337.933,8.48 337.927,8.48 337.92,8.48ZM337.92,328.09C337.917,328.09 337.913,328.09 337.91,328.09C252.029,328.09 181.36,257.421 181.36,171.54C181.36,85.659 252.029,14.99 337.91,14.99C423.791,14.99 494.46,85.659 494.46,171.54C494.46,257.417 423.797,328.085 337.92,328.09Z" style="fill:white;stroke:white;stroke-width:1px;"/>
        </g>
    </g>
</svg>
