<?xml version="1.0" encoding="UTF-8" standalone="no"?>
<!DOCTYPE svg PUBLIC "-//W3C//DTD SVG 1.1//EN" "http://www.w3.org/Graphics/SVG/1.1/DTD/svg11.dtd">
<svg width="100%" height="100%" viewBox="0 0 197 196" version="1.1" xmlns="http://www.w3.org/2000/svg" xmlns:xlink="http://www.w3.org/1999/xlink" xml:space="preserve" xmlns:serif="http://www.serif.com/" style="fill-rule:evenodd;clip-rule:evenodd;stroke-linejoin:round;stroke-miterlimit:2;">
    <g transform="matrix(9.95213,0,0,9.95213,-1595.13,-145.898)">
        <path d="M160.33,30.75L160.33,34.33L163.46,34.33C162.035,33.534 160.929,32.269 160.33,30.75Z" style="fill:white;fill-rule:nonzero;"/>
    </g>
    <g transform="matrix(9.95213,0,0,9.95213,-1595.13,-145.898)">
        <path d="M173.42,27C173.341,23.386 170.384,20.438 166.77,20.37C164.353,20.219 161.985,21.12 160.28,22.84L160.28,26.29C161.2,23.742 163.651,22.048 166.36,22.09C169.035,22.015 171.32,24.1 171.49,26.77C171.49,29.12 170.49,30.86 167.85,31.28C166.4,31.52 164.13,30.66 164.22,28.47C164.257,27.52 165.049,26.759 166,26.76L166.12,26.76C165.906,26.994 165.788,27.3 165.788,27.616C165.788,28.313 166.361,28.886 167.058,28.886C167.16,28.886 167.261,28.874 167.36,28.85C168.31,28.666 168.998,27.818 168.98,26.85C168.844,25.537 167.653,24.567 166.34,24.7L166.25,24.7C166.21,24.699 166.169,24.698 166.129,24.698C164.037,24.698 162.303,26.389 162.25,28.48L162.25,28.58C162.18,31.28 164.71,33.06 167.25,33.09C171.17,33.16 173.42,30.67 173.42,27Z" style="fill:white;fill-rule:nonzero;"/>
    </g>
    <g transform="matrix(9.95213,0,0,9.95213,-1595.13,-145.898)">
        <path d="M160.33,14.66L160.33,20.32C162.195,18.906 164.479,18.153 166.82,18.18C172.4,18.18 175.95,22.06 175.94,27C176.087,30.019 174.496,32.87 171.85,34.33L180,34.33L180,14.66L160.33,14.66Z" style="fill:white;fill-rule:nonzero;"/>
    </g>
</svg>
