<?xml version="1.0" standalone="no"?>
<!DOCTYPE svg PUBLIC "-//W3C//DTD SVG 20010904//EN"
 "http://www.w3.org/TR/2001/REC-SVG-20010904/DTD/svg10.dtd">
<svg version="1.0" xmlns="http://www.w3.org/2000/svg"
 width="700.000000pt" height="700.000000pt" viewBox="0 0 700.000000 700.000000"
 preserveAspectRatio="xMidYMid meet">
<metadata>
Created by potrace 1.14, written by Peter Selinger 2001-2017
</metadata>
<g transform="translate(0.000000,700.000000) scale(0.100000,-0.100000)"
fill="#000000" stroke="none">
<path d="M3387 6124 c-1 -1 -43 -5 -93 -8 -50 -4 -99 -8 -110 -10 -10 -2 -41
-7 -69 -10 -88 -12 -117 -18 -254 -52 -266 -68 -472 -152 -697 -285 -79 -47
-251 -163 -264 -179 -3 -3 -25 -21 -50 -40 -181 -140 -377 -354 -534 -584
-152 -223 -324 -611 -363 -818 -1 -9 -12 -57 -22 -105 -11 -48 -23 -110 -26
-138 -4 -27 -8 -57 -10 -65 -17 -64 -23 -395 -10 -570 l6 -95 -63 -65 c-245
-254 -468 -578 -558 -812 -65 -168 -85 -364 -51 -493 44 -171 161 -314 321
-392 88 -43 160 -68 220 -78 19 -3 42 -8 50 -10 71 -19 357 -27 480 -14 41 4
100 11 130 14 47 5 166 24 250 40 14 2 75 16 135 29 l109 25 30 -22 c17 -11
33 -24 36 -27 7 -8 139 -93 180 -116 19 -10 37 -22 40 -25 8 -9 292 -146 320
-154 14 -4 39 -13 55 -21 105 -46 362 -114 530 -139 271 -41 621 -37 856 10
13 3 38 8 54 10 17 3 38 8 47 11 9 3 25 6 35 8 74 15 296 82 348 106 11 5 54
23 95 40 76 32 282 137 329 169 14 10 46 31 71 47 278 180 546 445 738 731 41
61 170 276 173 291 2 4 17 39 35 78 199 436 276 921 222 1393 -2 24 10 44 65
102 342 366 550 706 612 1004 18 85 13 259 -8 325 -86 261 -301 417 -642 464
-94 13 -411 15 -475 2 -14 -2 -50 -7 -80 -10 -30 -4 -66 -8 -80 -11 -14 -2
-42 -6 -64 -9 -21 -4 -41 -8 -45 -10 -3 -2 -27 -7 -53 -10 -26 -4 -53 -9 -60
-11 -7 -2 -24 -7 -38 -9 -14 -3 -34 -7 -45 -10 -11 -2 -39 -9 -63 -14 l-42
-10 -143 95 c-362 243 -782 390 -1226 429 -66 6 -329 12 -334 8z m413 -458
c58 -9 116 -18 130 -21 14 -3 37 -7 52 -10 56 -10 266 -78 348 -112 496 -205
894 -578 1130 -1058 67 -136 152 -367 165 -451 6 -40 6 -41 -71 -110 -91 -82
-103 -92 -173 -152 -30 -26 -59 -52 -65 -57 -29 -28 -330 -263 -422 -330 -15
-11 -93 -66 -173 -122 -80 -56 -151 -107 -158 -112 -7 -6 -15 -11 -18 -11 -3
0 -27 -15 -53 -33 -126 -88 -498 -314 -707 -429 -189 -105 -210 -116 -380
-201 -226 -114 -383 -187 -540 -253 -71 -30 -139 -59 -150 -64 -110 -50 -413
-160 -604 -219 l-94 -30 -66 67 c-354 357 -556 778 -626 1297 -11 80 -13 352
-4 445 62 608 350 1138 829 1521 131 105 345 230 500 293 36 15 74 31 85 36
17 7 120 42 135 45 3 1 24 7 47 13 81 24 240 54 343 66 140 16 410 12 540 -8z
m2326 -415 c141 -29 211 -75 232 -153 6 -20 9 -38 7 -40 -1 -2 -5 -26 -9 -53
-7 -65 -34 -141 -81 -235 -57 -113 -200 -324 -272 -398 l-22 -24 -7 29 c-9 37
-87 219 -131 308 -77 153 -190 322 -346 522 -10 12 -15 23 -10 23 4 0 35 5 68
10 33 6 87 13 120 16 33 3 61 7 63 9 2 1 69 3 151 3 107 1 172 -4 237 -17z
m-441 -1866 c-9 -112 -16 -191 -20 -205 -2 -8 -7 -35 -10 -60 -4 -24 -8 -48
-11 -51 -2 -4 -6 -24 -10 -45 -19 -122 -145 -464 -204 -554 -5 -8 -21 -35 -34
-60 -38 -70 -131 -205 -199 -289 -237 -291 -544 -515 -897 -656 -98 -39 -301
-100 -368 -110 -21 -3 -47 -7 -57 -9 -117 -22 -176 -27 -340 -30 -268 -5 -507
33 -755 119 -108 38 -317 132 -309 139 2 3 58 25 124 49 484 181 1005 425
1455 682 74 43 155 89 180 103 400 225 1043 674 1370 956 41 35 78 65 82 65 3
1 5 -19 3 -44z m-4640 -812 c51 -145 179 -396 268 -526 38 -56 132 -180 171
-227 l38 -44 -26 -7 c-15 -4 -53 -10 -84 -14 -31 -3 -84 -10 -117 -14 -90 -13
-321 -10 -400 4 -152 27 -236 77 -251 149 -32 147 84 402 314 689 30 37 55 67
57 67 1 0 15 -35 30 -77z"/>
</g>
</svg>
